<svg width="64" height="64" viewBox="0 0 64 64" fill="none" xmlns="http://www.w3.org/2000/svg">
<path d="M50.6667 34.6666C52.1394 34.6666 53.3333 33.4727 53.3333 31.9999C53.3333 30.5272 52.1394 29.3333 50.6667 29.3333C49.1939 29.3333 48 30.5272 48 31.9999C48 33.4727 49.1939 34.6666 50.6667 34.6666Z" fill="white" stroke="white" stroke-width="2" stroke-linecap="round" stroke-linejoin="round"/>
<path d="M32 34.6666C33.4728 34.6666 34.6667 33.4727 34.6667 31.9999C34.6667 30.5272 33.4728 29.3333 32 29.3333C30.5273 29.3333 29.3334 30.5272 29.3334 31.9999C29.3334 33.4727 30.5273 34.6666 32 34.6666Z" fill="white" stroke="white" stroke-width="2" stroke-linecap="round" stroke-linejoin="round"/>
<path d="M13.3333 34.6666C14.8061 34.6666 16 33.4727 16 31.9999C16 30.5272 14.8061 29.3333 13.3333 29.3333C11.8605 29.3333 10.6666 30.5272 10.6666 31.9999C10.6666 33.4727 11.8605 34.6666 13.3333 34.6666Z" fill="white" stroke="white" stroke-width="2" stroke-linecap="round" stroke-linejoin="round"/>
</svg>
