<svg width="64" height="64" viewBox="0 0 64 64" fill="none" xmlns="http://www.w3.org/2000/svg">
<path d="M58.6667 45.1199V53.1199C58.6697 53.8626 58.5176 54.5977 58.2201 55.2782C57.9225 55.9587 57.4862 56.5695 56.9389 57.0716C56.3916 57.5736 55.7456 57.9559 55.042 58.1938C54.3385 58.4317 53.593 58.5201 52.8534 58.4533C44.6476 57.5616 36.7654 54.7577 29.84 50.2666C23.3969 46.1724 17.9343 40.7097 13.84 34.2666C9.3333 27.3098 6.52867 19.3893 5.65336 11.1466C5.58672 10.4092 5.67436 9.66596 5.91069 8.96426C6.14703 8.26257 6.52688 7.61777 7.02607 7.07092C7.52525 6.52407 8.13284 6.08716 8.81013 5.78799C9.48743 5.48883 10.2196 5.33396 10.96 5.33327H18.96C20.2542 5.32053 21.5088 5.77881 22.4901 6.62269C23.4713 7.46656 24.1122 8.63846 24.2934 9.91993C24.631 12.4801 25.2572 14.9939 26.16 17.4133C26.5188 18.3677 26.5965 19.405 26.3838 20.4023C26.1711 21.3995 25.677 22.3149 24.96 23.0399L21.5734 26.4266C25.3695 33.1027 30.8972 38.6305 37.5734 42.4266L40.96 39.0399C41.6851 38.323 42.6004 37.8289 43.5977 37.6162C44.5949 37.4035 45.6322 37.4812 46.5867 37.8399C49.0061 38.7427 51.5199 39.3689 54.08 39.7066C55.3754 39.8893 56.5584 40.5418 57.4041 41.5399C58.2498 42.538 58.6991 43.8121 58.6667 45.1199Z" stroke="#00B998" stroke-width="4" stroke-linecap="round" stroke-linejoin="round"/>
</svg>
