<svg width="64" height="64" viewBox="0 0 64 64" fill="none" xmlns="http://www.w3.org/2000/svg">
<g clip-path="url(#clip0_174_592)">
<path d="M32 40C36.4183 40 40 36.4183 40 32C40 27.5817 36.4183 24 32 24C27.5817 24 24 27.5817 24 32C24 36.4183 27.5817 40 32 40Z" stroke="white" stroke-width="6" stroke-linecap="round" stroke-linejoin="round"/>
<path d="M51.7333 40.0001C51.3784 40.8044 51.2725 41.6966 51.4293 42.5616C51.5862 43.4267 51.9986 44.2249 52.6133 44.8534L52.7734 45.0134C53.2692 45.5087 53.6626 46.0969 53.931 46.7444C54.1994 47.3919 54.3375 48.0859 54.3375 48.7867C54.3375 49.4876 54.1994 50.1816 53.931 50.8291C53.6626 51.4765 53.2692 52.0648 52.7734 52.5601C52.278 53.056 51.6898 53.4493 51.0424 53.7177C50.3949 53.9861 49.7009 54.1243 49 54.1243C48.2991 54.1243 47.6051 53.9861 46.9577 53.7177C46.3102 53.4493 45.722 53.056 45.2267 52.5601L45.0667 52.4001C44.4382 51.7853 43.64 51.3729 42.7749 51.2161C41.9099 51.0592 41.0177 51.1651 40.2134 51.5201C39.4246 51.8581 38.752 52.4194 38.2782 53.1348C37.8044 53.8503 37.5501 54.6886 37.5467 55.5467V56.0001C37.5467 57.4146 36.9848 58.7711 35.9846 59.7713C34.9844 60.7715 33.6278 61.3334 32.2134 61.3334C30.7989 61.3334 29.4423 60.7715 28.4421 59.7713C27.4419 58.7711 26.88 57.4146 26.88 56.0001V55.7601C26.8594 54.8774 26.5737 54.0214 26.06 53.3033C25.5464 52.5852 24.8286 52.0382 24 51.7334C23.1957 51.3784 22.3035 51.2725 21.4385 51.4294C20.5734 51.5863 19.7752 51.9986 19.1467 52.6134L18.9867 52.7734C18.4914 53.2693 17.9032 53.6627 17.2557 53.9311C16.6082 54.1995 15.9142 54.3376 15.2134 54.3376C14.5125 54.3376 13.8185 54.1995 13.171 53.9311C12.5235 53.6627 11.9353 53.2693 11.44 52.7734C10.9441 52.2781 10.5508 51.6899 10.2824 51.0424C10.014 50.395 9.87582 49.701 9.87582 49.0001C9.87582 48.2992 10.014 47.6052 10.2824 46.9577C10.5508 46.3103 10.9441 45.7221 11.44 45.2267L11.6 45.0667C12.2148 44.4383 12.6272 43.64 12.784 42.775C12.9409 41.9099 12.835 41.0177 12.48 40.2134C12.142 39.4247 11.5807 38.752 10.8653 38.2782C10.1498 37.8044 9.31145 37.5502 8.45335 37.5467H8.00002C6.58553 37.5467 5.22898 36.9848 4.22878 35.9846C3.22859 34.9845 2.66669 33.6279 2.66669 32.2134C2.66669 30.7989 3.22859 29.4424 4.22878 28.4422C5.22898 27.442 6.58553 26.8801 8.00002 26.8801H8.24002C9.12267 26.8594 9.9787 26.5737 10.6968 26.0601C11.4149 25.5465 11.9619 24.8287 12.2667 24.0001C12.6217 23.1958 12.7275 22.3036 12.5707 21.4385C12.4138 20.5735 12.0015 19.7752 11.3867 19.1467L11.2267 18.9867C10.7308 18.4914 10.3374 17.9032 10.069 17.2558C9.80064 16.6083 9.66249 15.9143 9.66249 15.2134C9.66249 14.5125 9.80064 13.8185 10.069 13.1711C10.3374 12.5236 10.7308 11.9354 11.2267 11.4401C11.722 10.9442 12.3102 10.5508 12.9577 10.2824C13.6051 10.014 14.2991 9.87589 15 9.87589C15.7009 9.87589 16.3949 10.014 17.0424 10.2824C17.6898 10.5508 18.278 10.9442 18.7734 11.4401L18.9334 11.6001C19.5618 12.2148 20.3601 12.6272 21.2251 12.7841C22.0902 12.9409 22.9824 12.8351 23.7867 12.4801H24C24.7887 12.142 25.4614 11.5808 25.9352 10.8653C26.409 10.1499 26.6633 9.31151 26.6667 8.45341V8.00008C26.6667 6.58559 27.2286 5.22904 28.2288 4.22885C29.229 3.22865 30.5855 2.66675 32 2.66675C33.4145 2.66675 34.7711 3.22865 35.7713 4.22885C36.7714 5.22904 37.3334 6.58559 37.3334 8.00008V8.24008C37.3368 9.09818 37.591 9.93655 38.0648 10.652C38.5386 11.3674 39.2113 11.9287 40 12.2667C40.8043 12.6217 41.6965 12.7276 42.5616 12.5708C43.4266 12.4139 44.2249 12.0015 44.8534 11.3867L45.0133 11.2267C45.5087 10.7309 46.0969 10.3375 46.7443 10.0691C47.3918 9.8007 48.0858 9.66255 48.7867 9.66255C49.4876 9.66255 50.1816 9.8007 50.829 10.0691C51.4765 10.3375 52.0647 10.7309 52.56 11.2267C53.0559 11.7221 53.4493 12.3103 53.7177 12.9577C53.9861 13.6052 54.1242 14.2992 54.1242 15.0001C54.1242 15.701 53.9861 16.395 53.7177 17.0424C53.4493 17.6899 53.0559 18.2781 52.56 18.7734L52.4 18.9334C51.7853 19.5619 51.3729 20.3601 51.216 21.2252C51.0592 22.0902 51.165 22.9824 51.52 23.7867V24.0001C51.8581 24.7888 52.4193 25.4615 53.1348 25.9353C53.8502 26.4091 54.6886 26.6633 55.5467 26.6667H56C57.4145 26.6667 58.7711 27.2287 59.7713 28.2288C60.7714 29.229 61.3334 30.5856 61.3334 32.0001C61.3334 33.4146 60.7714 34.7711 59.7713 35.7713C58.7711 36.7715 57.4145 37.3334 56 37.3334H55.76C54.9019 37.3368 54.0636 37.5911 53.3481 38.0649C52.6327 38.5387 52.0714 39.2114 51.7333 40.0001V40.0001Z" stroke="white" stroke-width="6" stroke-linecap="round" stroke-linejoin="round"/>
</g>
<defs>
<clipPath id="clip0_174_592">
<rect width="64" height="64" fill="white"/>
</clipPath>
</defs>
</svg>
